<svg width="32" height="32" viewBox="0 0 32 32" fill="none" xmlns="http://www.w3.org/2000/svg">
  <circle cx="16" cy="16" r="16" fill="#0a0a0f"/>
  
  <!-- Heaven - Clouds at top -->
  <path d="M8 9 Q8 7 10 7 Q10 5 12 5 Q14 5 14 7 Q16 7 16 9 Q14 9 12 9 Q10 9 8 9 Z" fill="#e8e4dc" opacity="0.9"/>
  <path d="M14 11 Q14 9 16 9 Q16 7 18 7 Q20 7 20 9 Q22 9 22 11 Q20 11 18 11 Q16 11 14 11 Z" fill="#d4af37" opacity="0.8"/>
  <circle cx="12" cy="9" r="2" fill="#e8e4dc" opacity="0.7"/>
  <circle cx="20" cy="10" r="1.5" fill="#d4af37" opacity="0.6"/>
  
  <!-- Dividing line -->
  <line x1="6" y1="16" x2="26" y2="16" stroke="#d4af37" stroke-width="0.5" opacity="0.4"/>
  
  <!-- Hell - Flames at bottom -->
  <path d="M10 23 Q10 20 12 20 Q12 18 14 20 Q14 22 12 24 Q10 24 10 23 Z" fill="#ff4500" opacity="0.9"/>
  <path d="M14 24 Q14 21 16 21 Q16 19 18 21 Q18 23 16 25 Q14 25 14 24 Z" fill="#ff6347" opacity="0.85"/>
  <path d="M18 23 Q18 21 20 21 Q20 19 22 21 Q22 23 20 24 Q18 24 18 23 Z" fill="#ff4500" opacity="0.8"/>
  <path d="M8 25 Q8 23 10 24 Q10 26 8 27 Q8 26 8 25 Z" fill="#ff6347" opacity="0.7"/>
  <path d="M22 25 Q22 23 24 24 Q24 26 22 27 Q22 26 22 25 Z" fill="#ff4500" opacity="0.7"/>
</svg>
